<svg width="36" height="37" viewBox="0 0 36 37" fill="none" xmlns="http://www.w3.org/2000/svg">
<path d="M14.025 19.025C13.875 18.875 13.8 18.7 13.8 18.5C13.8 18.3 13.875 18.125 14.025 17.975L18.225 13.775C18.45 13.55 18.719 13.494 19.032 13.607C19.344 13.719 19.5 13.95 19.5 14.3V22.7C19.5 23.05 19.344 23.281 19.032 23.393C18.719 23.506 18.45 23.45 18.225 23.225L14.025 19.025ZM3 18.5C3 20.575 3.394 22.525 4.182 24.35C4.969 26.175 6.0375 27.7625 7.3875 29.1125C8.7375 30.4625 10.325 31.531 12.15 32.318C13.975 33.106 15.925 33.5 18 33.5C20.075 33.5 22.025 33.106 23.85 32.318C25.675 31.531 27.2625 30.4625 28.6125 29.1125C29.9625 27.7625 31.0315 26.175 31.8195 24.35C32.6065 22.525 33 20.575 33 18.5C33 16.425 32.6065 14.475 31.8195 12.65C31.0315 10.825 29.9625 9.2375 28.6125 7.8875C27.2625 6.5375 25.675 5.469 23.85 4.682C22.025 3.894 20.075 3.5 18 3.5C15.925 3.5 13.975 3.894 12.15 4.682C10.325 5.469 8.7375 6.5375 7.3875 7.8875C6.0375 9.2375 4.969 10.825 4.182 12.65C3.394 14.475 3 16.425 3 18.5Z" fill="#FF8C00" fill-opacity="0.64"/>
</svg>
