<svg width="40" height="40" viewBox="0 0 40 40" fill="none" xmlns="http://www.w3.org/2000/svg">
<path d="M17.5218 15.0908C17.5172 14.6006 17.6581 14.1201 17.9267 13.7101C18.1953 13.3001 18.5795 12.9791 19.0307 12.7876C19.4819 12.5961 19.9798 12.5428 20.4613 12.6345C20.9428 12.7262 21.3863 12.9588 21.7356 13.3027C22.0848 13.6466 22.3242 14.0864 22.4233 14.5664C22.5224 15.0465 22.4768 15.5451 22.2924 15.9992C22.1079 16.4533 21.7928 16.8425 21.387 17.1174C20.9812 17.3923 20.5029 17.5406 20.0127 17.5435C19.6881 17.5461 19.3661 17.4848 19.0652 17.3629C18.7643 17.2411 18.4904 17.0611 18.259 16.8333C18.0277 16.6055 17.8435 16.3344 17.717 16.0354C17.5905 15.7364 17.5242 15.4154 17.5218 15.0908Z" fill="black"/>
<path d="M31.6364 4H8.36364C7.20633 4 6.09642 4.45974 5.27808 5.27808C4.45974 6.09642 4 7.20633 4 8.36364L4 31.6364C4 32.7937 4.45974 33.9036 5.27808 34.7219C6.09642 35.5403 7.20633 36 8.36364 36H31.6364C32.7937 36 33.9036 35.5403 34.7219 34.7219C35.5403 33.9036 36 32.7937 36 31.6364V8.36364C36 7.20633 35.5403 6.09642 34.7219 5.27808C33.9036 4.45974 32.7937 4 31.6364 4V4ZM20.02 10C21.021 10.0032 21.9985 10.3032 22.829 10.8619C23.6596 11.4206 24.3058 12.2131 24.686 13.139C25.0663 14.065 25.1634 15.0829 24.9652 16.064C24.767 17.0452 24.2824 17.9455 23.5726 18.6513C22.8627 19.3571 21.9596 19.8365 20.9773 20.0291C19.995 20.2216 18.9777 20.1186 18.054 19.7331C17.1302 19.3475 16.3415 18.6968 15.7876 17.863C15.2336 17.0293 14.9393 16.0501 14.9418 15.0491C14.9437 14.3841 15.0766 13.726 15.3328 13.1124C15.5891 12.4988 15.9636 11.9417 16.4352 11.4728C16.9068 11.004 17.466 10.6326 18.0811 10.3799C18.6962 10.1272 19.355 9.99809 20.02 10ZM25.6891 22.1109C25.0699 22.736 24.3224 23.2193 23.4982 23.5273C22.6954 23.8157 21.8599 24.0032 21.0109 24.0855C21.1382 24.2236 21.1927 24.2927 21.28 24.3727C22.4309 25.5291 23.5873 26.6818 24.7345 27.8436C24.9173 28.0098 25.0413 28.2308 25.0878 28.4733C25.1344 28.7159 25.101 28.9671 24.9927 29.1891C24.8819 29.432 24.7022 29.6371 24.476 29.7789C24.2498 29.9208 23.9869 29.9932 23.72 29.9873C23.4078 29.9556 23.119 29.8076 22.9109 29.5727C22.0418 28.6982 21.1564 27.84 20.3055 26.9491C20.0582 26.6891 19.9418 26.7382 19.72 26.9636C18.8455 27.8727 17.9564 28.7491 17.0636 29.6309C16.898 29.8149 16.6758 29.9383 16.4321 29.9818C16.1884 30.0253 15.9372 29.9863 15.7182 29.8709C15.4805 29.7604 15.2799 29.5835 15.1405 29.3616C15.0012 29.1396 14.929 28.8821 14.9327 28.62C14.9594 28.2955 15.1106 27.9939 15.3545 27.7782C16.4952 26.64 17.6327 25.5006 18.7673 24.36C18.8436 24.2836 18.9127 24.2036 19.0236 24.0873C17.4727 23.9255 16.0745 23.5418 14.8782 22.6073C14.726 22.4936 14.5797 22.3723 14.44 22.2436C13.9164 21.7418 13.8636 21.1655 14.2782 20.5709C14.6327 20.0636 15.2273 19.9273 15.8473 20.2182C15.9642 20.2782 16.0761 20.3475 16.1818 20.4255C17.2907 21.1785 18.5974 21.5868 19.9377 21.5991C21.278 21.6114 22.5921 21.2271 23.7145 20.4945C23.9285 20.3195 24.176 20.1902 24.4418 20.1145C24.6889 20.0424 24.9529 20.0551 25.1919 20.1507C25.4308 20.2463 25.6309 20.4192 25.76 20.6418C26.0964 21.1745 26.0927 21.6964 25.6891 22.1109Z" fill="black"/>
</svg>
