<svg width="36" height="36" viewBox="0 0 36 36" fill="none" xmlns="http://www.w3.org/2000/svg">
<g clip-path="url(#clip0_268_59)">
<path d="M34.3223 5.68835L29.6694 1.03981C29.3412 0.710142 28.9511 0.448576 28.5215 0.270133C28.0919 0.0916906 27.6312 -0.000111493 27.166 1.01619e-07C26.218 1.01619e-07 25.3267 0.371359 24.6583 1.03981L19.6515 6.0466C19.3218 6.37482 19.0602 6.76495 18.8818 7.19456C18.7033 7.62417 18.6115 8.0848 18.6117 8.55C18.6117 9.49806 18.983 10.3893 19.6515 11.0578L23.3126 14.7189C22.4556 16.6079 21.2641 18.3263 19.7956 19.7913C18.3308 21.2633 16.6126 22.4592 14.7233 23.3214L11.0621 19.6602C10.7339 19.3305 10.3438 19.069 9.91418 18.8905C9.48457 18.7121 9.02394 18.6203 8.55874 18.6204C7.61068 18.6204 6.71942 18.9917 6.05097 19.6602L1.03981 24.6626C0.709739 24.9914 0.447948 25.3823 0.269497 25.8127C0.0910467 26.2431 -0.000541394 26.7045 2.40744e-06 27.1704C2.40744e-06 28.1184 0.371362 29.0097 1.03981 29.6782L5.68398 34.3223C6.75 35.3927 8.22233 36 9.73398 36C10.0529 36 10.3587 35.9738 10.6602 35.9214C16.5495 34.9515 22.3908 31.8189 27.1049 27.1092C31.8146 22.4039 34.9427 16.567 35.9257 10.6602C36.2228 8.85583 35.6243 6.99903 34.3223 5.68835Z" fill="white"/>
</g>
<defs>
<clipPath id="clip0_268_59">
<rect width="36" height="36" fill="white"/>
</clipPath>
</defs>
</svg>
