<svg width="36" height="36" viewBox="0 0 36 36" fill="none" xmlns="http://www.w3.org/2000/svg">
<path fill-rule="evenodd" clip-rule="evenodd" d="M17.9375 9V0H8.88125C7.85188 0 6.86467 0.406377 6.13679 1.12973C5.40892 1.85309 5 2.83416 5 3.85714V32.1429C5 33.1658 5.40892 34.1469 6.13679 34.8703C6.86467 35.5936 7.85188 36 8.88125 36H26.9938C28.0231 36 29.0103 35.5936 29.7382 34.8703C30.4661 34.1469 30.875 33.1658 30.875 32.1429V12.8571H21.8188C20.7894 12.8571 19.8022 12.4508 19.0743 11.7274C18.3464 11.0041 17.9375 10.023 17.9375 9ZM20.525 9V0.642857L30.2281 10.2857H21.8188C21.4756 10.2857 21.1466 10.1503 20.9039 9.90914C20.6613 9.66802 20.525 9.34099 20.525 9ZM10 18C9.44772 18 9 18.4477 9 19C9 19.5523 9.44772 20 10 20H26C26.5523 20 27 19.5523 27 19C27 18.4477 26.5523 18 26 18H10ZM9 23C9 22.4477 9.44772 22 10 22H26C26.5523 22 27 22.4477 27 23C27 23.5523 26.5523 24 26 24H10C9.44772 24 9 23.5523 9 23ZM23 29C22.4477 29 22 29.4477 22 30C22 30.5523 22.4477 31 23 31H26C26.5523 31 27 30.5523 27 30C27 29.4477 26.5523 29 26 29H23Z" fill="white"/>
</svg>
