<svg width="41" height="36" viewBox="0 0 41 36" fill="none" xmlns="http://www.w3.org/2000/svg">
<g clip-path="url(#clip0_268_62)">
<path d="M0.718937 17.2797L10.145 20.8176L13.8196 32.7179C13.9794 33.5219 14.9379 33.6827 15.577 33.2003L20.8492 28.8583C21.3285 28.3759 22.1273 28.3759 22.7664 28.8583L32.1924 35.7733C32.8315 36.2558 33.7901 35.9341 33.9498 35.1301L40.9794 1.35912C41.1392 0.55505 40.3404 -0.249013 39.5416 0.0726149L0.718937 15.1891C-0.239646 15.5108 -0.239646 16.9581 0.718937 17.2797ZM13.3403 19.0487L31.8729 7.63087C32.1924 7.47006 32.512 7.9525 32.1924 8.11332L17.0149 22.4258C16.5356 22.9082 16.0563 23.5515 16.0563 24.3555L15.577 28.2151C15.577 28.6975 14.7782 28.8583 14.6184 28.2151L12.7012 21.1393C12.2219 20.3352 12.5415 19.3703 13.3403 19.0487Z" fill="white"/>
</g>
<defs>
<clipPath id="clip0_268_62">
<rect width="41" height="36" fill="white"/>
</clipPath>
</defs>
</svg>
