<svg width="20" height="20" viewBox="0 0 20 20" fill="none" xmlns="http://www.w3.org/2000/svg">
<path d="M1.2981 9.67987L5.20648 11.2523L6.73007 16.5413C6.79632 16.8986 7.19378 16.9701 7.45876 16.7557L9.64478 14.8259C9.84352 14.6115 10.1747 14.6115 10.4397 14.8259L14.3481 17.8993C14.6131 18.1137 15.0105 17.9707 15.0768 17.6134L17.9915 2.60405C18.0577 2.24669 17.7265 1.88933 17.3953 2.03227L1.2981 8.75073C0.900635 8.89367 0.900635 9.53693 1.2981 9.67987ZM6.53135 10.4661L14.2156 5.3915C14.3481 5.32002 14.4806 5.53445 14.3481 5.60592L8.05494 11.967C7.85621 12.1814 7.65748 12.4673 7.65748 12.8247L7.45876 14.54C7.45876 14.7545 7.12753 14.8259 7.06129 14.54L6.26636 11.3952C6.06763 11.0379 6.20013 10.609 6.53135 10.4661Z" fill="black"/>
</svg>
