<svg width="20" height="20" viewBox="0 0 20 20" fill="none" xmlns="http://www.w3.org/2000/svg">
<path d="M14.3839 1.42196C11.4799 0.859346 8.46422 0.859346 5.56021 1.42196C4.27574 1.70327 2.6562 3.2786 2.37696 4.51635C1.87435 6.9356 1.87435 9.41111 2.37696 11.8304C2.71204 13.0681 4.33159 14.6434 5.56021 14.9248C5.61605 14.9248 5.6719 14.981 5.6719 15.0373V18.5818C5.6719 18.7505 5.89529 18.8631 6.00698 18.6943L7.68237 16.9502C7.68237 16.9502 9.02269 15.5436 9.24607 15.3186C9.24607 15.3186 9.30192 15.2623 9.35777 15.2623C11.0332 15.3186 12.7644 15.1498 14.4398 14.8685C15.7243 14.5872 17.3438 13.0119 17.623 11.7741C18.1257 9.35485 18.1257 6.87934 17.623 4.46009C17.288 3.2786 15.6684 1.70327 14.3839 1.42196ZM14.4398 11.9992C14.1606 12.5618 13.8255 13.0119 13.267 13.2932C13.0995 13.3494 12.9319 13.4057 12.7644 13.462C12.541 13.4057 12.3735 13.3494 12.2059 13.2932C10.4188 12.5618 8.74346 11.5491 7.40314 10.0863C6.67714 9.24233 6.06283 8.28588 5.56021 7.27317C5.33682 6.76682 5.11344 6.31672 4.9459 5.81037C4.77836 5.36028 5.05759 4.91018 5.33682 4.57261C5.61605 4.23504 5.95113 4.01 6.34206 3.84121C6.62129 3.67243 6.90052 3.78495 7.12391 4.01C7.57068 4.57261 8.01745 5.13523 8.35253 5.75411C8.57592 6.14794 8.52007 6.59803 8.12914 6.87934C8.01745 6.9356 7.9616 6.99187 7.84991 7.10439C7.79406 7.16065 7.68237 7.21691 7.62652 7.32943C7.51483 7.49822 7.51483 7.667 7.57068 7.83579C8.01745 9.12981 8.85515 10.1425 10.1396 10.7051C10.363 10.8177 10.5305 10.8739 10.8098 10.8739C11.2007 10.8177 11.3682 10.3676 11.6475 10.1425C11.9267 9.91747 12.2618 9.91747 12.5969 10.0863C12.8761 10.255 13.1553 10.4801 13.4904 10.7051C13.7696 10.9302 14.0489 11.099 14.3281 11.324C14.4956 11.4365 14.5515 11.7178 14.4398 11.9992ZM12.0942 7.77953C11.9825 7.77953 12.0384 7.77953 12.0942 7.77953C11.8709 7.77953 11.815 7.66701 11.7592 7.49822C11.7592 7.3857 11.7592 7.21691 11.7033 7.10439C11.6475 6.87934 11.5358 6.65429 11.3124 6.48551C11.2007 6.42925 11.089 6.37299 10.9773 6.31672C10.8098 6.26046 10.6981 6.26046 10.5305 6.26046C10.363 6.2042 10.3072 6.09168 10.3072 5.92289C10.3072 5.81037 10.4747 5.69785 10.5864 5.69785C11.4799 5.75411 12.1501 6.26046 12.2618 7.32943C12.2618 7.38569 12.2618 7.49822 12.2618 7.55448C12.2618 7.667 12.2059 7.77953 12.0942 7.77953ZM11.5358 5.30402C11.2565 5.19149 10.9773 5.07897 10.6422 5.02271C10.5305 5.02271 10.363 4.96645 10.2513 4.96645C10.0838 4.96645 9.97208 4.85392 10.0279 4.68514C10.0279 4.51635 10.1396 4.40383 10.3072 4.46009C10.8656 4.51635 11.3682 4.62888 11.8709 4.85392C12.8761 5.36028 13.4346 6.2042 13.6021 7.32943C13.6021 7.38569 13.6021 7.44196 13.6021 7.49822C13.6021 7.61074 13.6021 7.72327 13.6021 7.89205C13.6021 7.94831 13.6021 8.00457 13.6021 8.06084C13.5462 8.28588 13.1553 8.34214 13.0995 8.06084C13.0995 8.00457 13.0436 7.89205 13.0436 7.83579C13.0436 7.32943 12.9319 6.82308 12.7086 6.37299C12.3735 5.86663 11.9825 5.52906 11.5358 5.30402ZM14.5515 8.67971C14.3839 8.67971 14.2723 8.51093 14.2723 8.34214C14.2723 8.00457 14.2164 7.667 14.1606 7.32943C13.9372 5.52906 12.4852 4.06626 10.7539 3.78495C10.4747 3.72869 10.1955 3.72869 9.97208 3.67243C9.80454 3.67243 9.58115 3.67243 9.5253 3.44738C9.46946 3.2786 9.637 3.10981 9.80454 3.10981C9.86038 3.10981 9.91623 3.10981 9.91623 3.10981C12.2059 3.16607 10.0279 3.10981 9.91623 3.10981C12.2618 3.16607 14.2164 4.7414 14.6073 7.10439C14.6632 7.49822 14.719 7.89205 14.719 8.34214C14.8307 8.51093 14.719 8.67971 14.5515 8.67971Z" fill="black"/>
</svg>
