<svg width="36" height="36" viewBox="0 0 36 36" fill="none" xmlns="http://www.w3.org/2000/svg">
<g clip-path="url(#clip0_268_61)">
<path d="M30.7317 5.25C27.3449 1.875 22.8293 0 18.0627 0C8.15331 0 0.125434 8 0.125434 17.875C0.125434 21 1.00348 24.125 2.50871 26.75L0 36L9.5331 33.5C12.1672 34.875 15.0523 35.625 18.0627 35.625C27.9721 35.625 36 27.625 36 17.75C35.8746 13.125 34.1185 8.625 30.7317 5.25ZM26.7178 24.25C26.3415 25.25 24.5854 26.25 23.7073 26.375C22.9547 26.5 21.9512 26.5 20.9477 26.25C20.3206 26 19.4425 25.75 18.439 25.25C13.9233 23.375 11.0383 18.875 10.7875 18.5C10.5366 18.25 8.90593 16.125 8.90593 13.875C8.90593 11.625 10.0348 10.625 10.4111 10.125C10.7875 9.625 11.2892 9.625 11.6655 9.625C11.9164 9.625 12.2927 9.625 12.5435 9.625C12.7944 9.625 13.1707 9.5 13.547 10.375C13.9233 11.25 14.8014 13.5 14.9268 13.625C15.0523 13.875 15.0523 14.125 14.9268 14.375C14.8014 14.625 14.676 14.875 14.4251 15.125C14.1742 15.375 13.9233 15.75 13.7979 15.875C13.547 16.125 13.2962 16.375 13.547 16.75C13.7979 17.25 14.676 18.625 16.0557 19.875C17.8118 21.375 19.1916 21.875 19.6934 22.125C20.1951 22.375 20.446 22.25 20.6969 22C20.9477 21.75 21.8258 20.75 22.0767 20.25C22.3275 19.75 22.7038 19.875 23.0801 20C23.4564 20.125 25.7143 21.25 26.0906 21.5C26.5923 21.75 26.8432 21.875 26.9686 22C27.0941 22.375 27.0941 23.25 26.7178 24.25Z" fill="white"/>
</g>
<defs>
<clipPath id="clip0_268_61">
<rect width="36" height="36" fill="white"/>
</clipPath>
</defs>
</svg>
