<svg width="20" height="20" viewBox="0 0 20 20" fill="none" xmlns="http://www.w3.org/2000/svg">
<path d="M15.6585 4.33333C14.1533 2.83333 12.1463 2 10.0279 2C5.62369 2 2.05575 5.55556 2.05575 9.94444C2.05575 11.3333 2.44599 12.7222 3.11498 13.8889L2 18L6.23694 16.8889C7.40767 17.5 8.6899 17.8333 10.0279 17.8333C14.4321 17.8333 18 14.2778 18 9.88889C17.9443 7.83333 17.1638 5.83333 15.6585 4.33333ZM13.8746 12.7778C13.7073 13.2222 12.9268 13.6667 12.5366 13.7222C12.2021 13.7778 11.7561 13.7778 11.3101 13.6667C11.0314 13.5556 10.6411 13.4444 10.1951 13.2222C8.18816 12.3889 6.90593 10.3889 6.79443 10.2222C6.68293 10.1111 5.95819 9.16667 5.95819 8.16667C5.95819 7.16667 6.45993 6.72222 6.62718 6.5C6.79443 6.27778 7.01742 6.27778 7.18467 6.27778C7.29617 6.27778 7.46341 6.27778 7.57491 6.27778C7.68641 6.27778 7.85366 6.22222 8.02091 6.61111C8.18815 7 8.5784 8 8.63415 8.05556C8.6899 8.16667 8.6899 8.27778 8.63415 8.38889C8.5784 8.5 8.52265 8.61111 8.41115 8.72222C8.29965 8.83333 8.18815 9 8.1324 9.05556C8.02091 9.16667 7.90941 9.27778 8.02091 9.44444C8.13241 9.66667 8.52265 10.2778 9.13589 10.8333C9.91638 11.5 10.5296 11.7222 10.7526 11.8333C10.9756 11.9444 11.0871 11.8889 11.1986 11.7778C11.3101 11.6667 11.7004 11.2222 11.8119 11C11.9233 10.7778 12.0906 10.8333 12.2578 10.8889C12.4251 10.9444 13.4286 11.4444 13.5958 11.5556C13.8188 11.6667 13.9303 11.7222 13.9861 11.7778C14.0418 11.9444 14.0418 12.3333 13.8746 12.7778Z" fill="black"/>
</svg>
