<svg width="90" height="90" viewBox="0 0 90 90" fill="none" xmlns="http://www.w3.org/2000/svg">
<g clip-path="url(#clip0_153_20)">
<path d="M66.5385 85.504C65.8668 82.0875 63.4485 74.7722 59.1492 72.8429C55.1187 71.0341 54.4469 69.8283 54.4469 68.6225C54.4469 67.4166 55.1187 66.3314 57.8057 64.4021C60.4927 62.4728 60.4927 54.1526 59.821 51.7409C59.1492 49.3293 56.8652 46.3147 50.4164 46.3147C43.9675 46.3147 40.34 49.3293 39.6682 51.7409C38.9965 54.1526 39.6682 61.9904 43.6988 65.005C45.0423 66.2108 45.7141 67.1755 45.7141 68.6225C45.7141 69.8283 45.7141 71.0341 41.6835 73.4458C38.1046 75.5872 35.6377 80.6807 35.6377 86.7099C39.7244 87.5435 49.4202 88.4877 59.9698 86.8578" stroke="#1D397A" stroke-width="2" stroke-linecap="round" stroke-linejoin="round"/>
<path d="M11.7028 2.61181C8.46854 5.82834 2 15.7353 2 29.6307C2 43.5261 16.0152 47 23.0228 47C26.7961 46.3567 35.9598 43.5261 42.4284 37.3504C48.8969 31.1746 45.1236 16.7646 42.4284 10.3315C39.9523 5.64454 32.3286 -2.46113 21.6429 2.61181" stroke="#1D397A" stroke-width="2" stroke-linecap="round" stroke-linejoin="round"/>
<path d="M11.7028 2.61181C8.46854 5.82834 2 15.7353 2 29.6307C2 43.5261 16.0152 47 23.0228 47C26.7961 46.3567 35.9598 43.5261 42.4284 37.3504C48.8969 31.1746 45.1236 16.7646 42.4284 10.3315C39.9523 5.64454 32.3286 -2.46113 21.6429 2.61181" stroke="#1D397A" stroke-width="2" stroke-linecap="round" stroke-linejoin="round"/>
<path d="M10.0104 28.6615C9.10936 26.1023 8.403 19.8733 12.7861 15.4305M12.7861 15.4305C19.3588 20.3683 32.8713 31.0094 34.3395 34.071M12.7861 15.4305C12.553 19.1142 13.3504 27.4963 18.4047 31.5547C23.4591 35.6132 31.1339 34.9233 34.3395 34.071M12.7861 15.4305C16.1269 14.8331 24.2648 14.6095 30.0892 18.4944C35.9136 22.3793 35.3496 30.4975 34.3395 34.071M12.7861 15.4305C15.7731 12.4028 19.7082 10.5028 23.6966 10.3484M34.3395 34.071C40.0118 28.5128 39.6067 19.8116 33.2699 13.9646C30.388 11.3054 27.0237 10.2196 23.6966 10.3484M34.3395 34.071C31.2217 37.126 27.7805 38.9023 24.0055 38.9821M14.0491 35.5322C13.0582 34.5884 12.1117 33.8758 10.6473 30.969M14.0491 35.5322C18.4724 31.6821 28.3241 22.3315 32.3449 15.7294M14.0491 35.5322C17.5956 37.9742 20.9126 39.0476 24.0055 38.9821M23.6966 10.3484C23.196 13.6439 20.0524 21.2936 11.4829 25.5284M24.0055 38.9821C24.7842 36.5066 28.3565 30.0352 36.4165 23.9544" stroke="#1D397A" stroke-width="2" stroke-linecap="round" stroke-linejoin="round"/>
<path d="M21.5762 53.4458C18.9552 53.3027 12.244 54.3556 6.36673 59.7121C0.489418 65.0686 4.48205 72.4007 7.21302 75.3973C8.95565 76.7628 13.7242 79.5902 18.8572 79.9756C23.9902 80.3609 28.6147 73.1926 30.2853 69.5602C31.3027 66.6946 31.7601 60.3101 25.45 57.6963" stroke="#1D397A" stroke-width="2" stroke-linecap="round" stroke-linejoin="round"/>
<path d="M23.7639 62.5916L23.4766 63.6861M22.9918 65.5627C22.9024 65.7868 22.7453 66.2892 22.8319 66.5056C22.9186 66.7221 23.0377 66.7957 23.0864 66.8055L26.9431 68.5508C27.1537 68.7301 27.4308 69.2118 26.8539 69.704L24.1673 70.7798C23.8884 70.8664 23.2155 71.0003 22.7549 70.8432C22.2942 70.6861 21.2918 70.2656 20.8482 70.0749C20.607 69.9873 20.0817 69.8319 19.9091 69.911C19.6934 70.01 19.5528 70.3299 19.6438 70.5572C19.7166 70.739 19.8973 71.4811 19.9786 71.8294C20.0199 72.0221 19.9543 72.4669 19.3614 72.7043C18.6203 73.0011 16.2565 73.91 14.4191 73.3149C12.5817 72.7197 10.9456 71.956 6.77049 68.4424C6.4972 68.1626 6.02967 67.5588 6.34585 67.3819L9.3799 66.1669C9.5483 66.0953 9.96751 66.0572 10.2971 66.4777C10.7092 67.0033 12.271 68.3868 13.7248 69.0979C14.8878 69.6667 14.36 67.9437 13.9507 67.011C13.8111 66.64 13.4526 65.8343 13.1356 65.5796C12.8186 65.3248 12.5338 65.3518 12.431 65.3972C12.1531 65.408 11.7475 65.2942 12.3475 64.7526C12.9476 64.2109 14.7516 63.5304 15.5786 63.2578C15.7861 63.2166 16.2472 63.1759 16.4323 63.3428C16.6174 63.5098 17.2097 64.9149 17.4827 65.5966C17.6487 66.1454 18.0611 67.276 18.3829 67.4083C18.7046 67.5407 19.257 66.0455 19.4929 65.2813L19.6772 62.7214C19.6069 62.5236 19.6054 62.0722 20.1612 61.8496C20.7171 61.627 22.292 60.9963 23.01 60.7088C23.3602 60.6104 24.0341 60.5348 23.9272 61.0196" stroke="#1D397A" stroke-width="1.5" stroke-linecap="round" stroke-linejoin="round"/>
<path d="M81.8324 11.0878C78.7418 9.77116 70.2044 8.10572 60.7802 11.9774C51.356 15.8491 52.9395 26.4064 54.9092 31.201C56.4062 33.6035 60.9018 39.0847 66.9086 41.7898C72.9153 44.4948 81.628 37.898 85.2334 34.2615C87.7162 31.2613 91.0707 23.7867 84.6265 17.8889" stroke="#1D397A" stroke-width="2" stroke-linecap="round" stroke-linejoin="round"/>
<path d="M80.7266 21.8474L81.0889 21.9445C82.89 22.4271 83.9432 24.222 83.4413 25.9537L81.2199 33.618C80.718 35.3497 78.851 36.3623 77.0499 35.8797L59.0439 31.0555C57.2428 30.5729 56.1896 28.778 56.6915 27.0463L58.9129 19.382C59.4149 17.6503 61.2818 16.6377 63.0829 17.1203L77.0499 20.9118M70.3698 24.2709L72.7903 27.4676L68.7327 29.0306L68.9414 27.0588" stroke="#1D397A" stroke-width="2" stroke-linecap="round" stroke-linejoin="round"/>
</g>
<defs>
<clipPath id="clip0_153_20">
<rect width="90" height="90" fill="white"/>
</clipPath>
</defs>
</svg>
