<svg width="90" height="90" viewBox="0 0 90 90" fill="none" xmlns="http://www.w3.org/2000/svg">
<path d="M12.335 55.8801C11.5302 56.1445 10.5598 56.4099 8.93074 56.7919C7.30172 57.1738 6.60026 57.3004 5.58315 57.4632C4.90439 57.6223 3.6327 58.3067 3.97601 59.7709C4.31931 61.2351 5.21292 65.0464 5.61681 66.769C5.77875 67.2989 6.42919 68.305 7.73546 68.0896C9.36829 67.8203 10.5532 67.2017 12.8039 66.674C14.6044 66.2519 15.4014 66.065 16.1516 65.8891L13.8797 56.1994" stroke="#1D397A" stroke-width="2" stroke-linecap="round" stroke-linejoin="round"/>
<rect x="6.72266" y="60.9139" width="1.20663" height="3.6199" rx="0.603316" transform="rotate(-13.1954 6.72266 60.9139)" fill="#1D397A"/>
<rect x="9.07227" y="60.3631" width="1.20663" height="3.6199" rx="0.603316" transform="rotate(-13.1954 9.07227 60.3631)" fill="#1D397A"/>
<rect x="11.4219" y="59.8121" width="1.20663" height="3.6199" rx="0.603316" transform="rotate(-13.1954 11.4219 59.8121)" fill="#1D397A"/>
<path d="M18.6245 65.5376L39.7149 70.9826C40.5534 71.0938 42.2831 70.8191 42.4949 68.83C42.7066 66.8409 38.1872 49.2525 35.9011 40.707C35.5455 39.9437 34.4537 38.6913 32.9305 39.7872C31.4074 40.8832 20.8301 50.0897 15.7318 54.556" stroke="#1D397A" stroke-width="2" stroke-linecap="round" stroke-linejoin="round"/>
<path d="M31.3848 43.5561C32.0061 50.0791 36.118 57.2894 37.3131 68.8406" stroke="#1D397A" stroke-width="2" stroke-linecap="round" stroke-linejoin="round"/>
<path d="M9.86426 69.509L17.0087 81.5316L21.1089 80.5702L14.0347 68.8473" stroke="#1D397A" stroke-width="2" stroke-linecap="round" stroke-linejoin="round"/>
<path d="M54.5342 23.5724C57.6503 20.5739 65.7171 16.6228 73.0548 24.8072" stroke="#1D397A" stroke-width="2" stroke-linecap="round" stroke-linejoin="round"/>
<path d="M62.6468 31.5098C62.2941 31.8038 61.5885 32.7092 61.5885 33.9792C61.5885 35.2492 63.1172 35.5667 63.8815 35.5667C64.2931 35.5079 65.2926 35.2492 65.9982 34.6847C66.7037 34.1203 66.2921 32.8033 65.9982 32.2153C65.7042 31.9801 64.8693 31.5098 63.8815 31.5098M57.708 28.864C59.4719 27.5117 64.2343 25.6185 69.1731 28.864" stroke="#1D397A" stroke-width="2" stroke-linecap="round" stroke-linejoin="round"/>
<path d="M59.9829 60.748C59.8281 60.9006 59.5186 61.3705 59.5186 62.0297C59.5186 62.6889 60.1893 62.8537 60.5246 62.8537C60.7052 62.8232 61.1438 62.6889 61.4533 62.3959C61.7629 62.103 61.5823 61.4194 61.4533 61.1142" stroke="#1D397A" stroke-width="2" stroke-linecap="round" stroke-linejoin="round"/>
<path d="M64.897 64.9595C64.7422 65.1121 64.4326 65.582 64.4326 66.2412C64.4326 66.9004 65.1033 67.0652 65.4387 67.0652C65.6193 67.0346 66.0578 66.9004 66.3674 66.6074C66.6769 66.3144 66.4964 65.6309 66.3674 65.3257" stroke="#1D397A" stroke-width="2" stroke-linecap="round" stroke-linejoin="round"/>
<path d="M69.1089 69.8727C68.9541 70.0253 68.6445 70.4952 68.6445 71.1544C68.6445 71.8136 69.3153 71.9784 69.6506 71.9784C69.8312 71.9479 70.2697 71.8136 70.5793 71.5206C70.8889 71.2276 70.7083 70.5441 70.5793 70.2389" stroke="#1D397A" stroke-width="2" stroke-linecap="round" stroke-linejoin="round"/>
<path d="M42.8923 39.6236C41.4812 42.3047 40.658 43.0926 40.4229 43.1514C41.8339 42.8574 45.6086 41.7403 49.4186 39.6236C54.181 36.9778 60.0017 39.8 67.41 39.9764C73.3366 40.1175 78.2283 39.8 79.9334 39.6236" stroke="#1D397A" stroke-width="2" stroke-linecap="round" stroke-linejoin="round"/>
<path d="M82.4025 39.0945C84.8719 38.6829 89.6343 35.9901 88.9287 28.5113C88.0468 19.1628 79.933 20.0448 78.3456 20.9267C78.5219 19.2216 78.3808 14.7531 75.6998 12.6365C72.3484 9.9907 69.7026 9.99072 67.2332 12.1074C65.5281 9.16758 60.0719 3.99356 51.8876 6.81575C43.7033 9.63793 43.1859 17.399 43.9502 20.9267M42.8917 22.3378C41.0691 22.9257 37.4943 25.2305 37.7765 29.746C38.0587 34.2615 40.3636 37.3894 41.4807 38.3889" stroke="#1D397A" stroke-width="2" stroke-linecap="round" stroke-linejoin="round"/>
<path d="M50.6092 67.7086C49.115 68.9357 48.441 69.1947 48.2908 69.1708C49.177 69.3488 53.2893 69.159 56.0111 69.5219C61.2758 70.2238 59.5211 74.4351 63.0304 76.8917C66.0729 79.0216 70.5231 78.1927 71.8038 77.2427" stroke="#1D397A" stroke-width="2" stroke-linecap="round" stroke-linejoin="round"/>
<path d="M73.587 76.5957C75.1116 76.9678 78.5357 76.5675 80.035 71.9895C81.9092 66.2671 77.0197 64.7677 75.8823 64.8919C76.418 63.9321 77.4751 61.2666 76.4728 59.3536C75.2199 56.9624 73.6988 56.3041 71.7398 56.9357C71.5084 54.781 69.6893 50.3779 64.2649 50.003C58.8405 49.6281 57.173 52.8661 56.7139 55.1328M55.139 56.902C53.9413 56.7946 51.299 57.262 50.311 59.9902C49.3231 62.7185 49.8515 65.1332 50.2392 65.9995" stroke="#1D397A" stroke-width="2" stroke-linecap="round" stroke-linejoin="round"/>
</svg>
