<svg width="90" height="90" viewBox="0 0 90 90" fill="none" xmlns="http://www.w3.org/2000/svg">
<g clip-path="url(#clip0_153_19)">
<path d="M35.2278 23.9518V23.9518C37.9284 23.9518 40.1176 26.1411 40.1176 28.8416V38.5109C40.1176 41.2724 37.879 43.5109 35.1176 43.5109H12.0176C9.25616 43.5109 7.01758 41.2724 7.01758 38.5109V28.9518C7.01758 26.1904 9.25615 23.9518 12.0176 23.9518H32.2187" stroke="#1D397A" stroke-width="2" stroke-linecap="round" stroke-linejoin="round"/>
<path d="M73.595 50.7931V50.7931C76.2955 50.7931 78.4848 52.9823 78.4848 55.6829V71.1003C78.4848 73.965 76.0867 76.2494 73.2234 76.162C68.3416 76.0129 61.122 75.9104 56.2927 76.3704M70.5859 50.7931H50.3848C47.6233 50.7931 45.3848 53.026 45.3848 55.7874C45.3848 60.003 45.3848 66.2262 45.3848 71.8062C45.3848 74.3922 47.3602 76.5644 49.9461 76.5347C50.919 76.5236 51.9437 76.4775 52.9075 76.3704" stroke="#1D397A" stroke-width="2" stroke-linecap="round" stroke-linejoin="round"/>
<path d="M88.6156 12.1794C88.9055 16.6496 89.3112 26.4776 88.6156 35.865C87.7462 47.5993 88.3263 58.4954 88.3263 62.6863C88.3263 66.8771 88.6156 71.906 88.6156 78.1923" stroke="#1D397A" stroke-width="2" stroke-linecap="round" stroke-linejoin="round"/>
<path d="M87.7667 9.27505C87.3906 6.89285 85.4347 2.05323 80.6201 1.75232" stroke="#1D397A" stroke-width="2" stroke-linecap="round" stroke-linejoin="round"/>
<path d="M88.1434 81.5159C86.8897 83.8981 82.2757 88.4368 73.8503 87.5341C63.3184 86.4057 46.0162 87.5341 43.7593 87.5341C41.5025 87.5341 35.4843 87.5341 30.2184 87.5341C24.9525 87.5341 20.3637 86.554 15.9629 87.8742" stroke="#1D397A" stroke-width="2" stroke-linecap="round" stroke-linejoin="round"/>
<path d="M13.3224 88.7464C9.56227 88.886 1.8864 87.2393 1.26403 79.5365C0.641663 71.8336 1.26403 58.7444 1.65301 53.1626C2.30155 40.6036 3.36516 14.6483 2.43132 11.2993" stroke="#1D397A" stroke-width="2" stroke-linecap="round" stroke-linejoin="round"/>
<path d="M2.38379 8.89884C2.75993 7.51967 4.56538 4.3852 8.77811 2.88066C12.9908 1.37611 25.0774 1.50149 30.594 1.75225C44.2603 2.00301 72.8717 2.20364 77.9872 1" stroke="#1D397A" stroke-width="2" stroke-linecap="round" stroke-linejoin="round"/>
<path d="M4.76074 17.9337L86.0062 18.6859" stroke="#1D397A" stroke-width="2" stroke-linecap="round" stroke-linejoin="round"/>
<rect x="10.7793" y="9.53082" width="5.26591" height="3.00909" rx="1.50455" fill="#1D397A"/>
<rect x="19.8066" y="9.53082" width="5.26591" height="3.00909" rx="1.50455" fill="#1D397A"/>
<rect x="28.834" y="9.53082" width="5.26591" height="3.00909" rx="1.50455" fill="#1D397A"/>
<path d="M23.1378 30.7224L27.3291 34.0412L22.8154 37.4928V32.9792" stroke="#1D397A" stroke-width="2" stroke-linecap="round" stroke-linejoin="round"/>
<path d="M74.7228 72.6089L69.7321 66.9669C68.6924 65.7131 65.7395 62.5786 64.7414 65.0862C63.7433 67.5938 62.8699 68.2207 62.2461 68.2207C61.6222 68.2207 60.6241 67.9699 59.1269 64.4593C57.2554 60.0711 56.4613 57.5635 54.76 57.5635C52.2647 57.5635 49.7693 67.8027 49.1455 72.6089H69.2133" stroke="#1D397A" stroke-width="2" stroke-linecap="round" stroke-linejoin="round"/>
<circle cx="71.7142" cy="58.3157" r="3.00909" stroke="#1D397A" stroke-width="2" stroke-linecap="round" stroke-linejoin="round"/>
<path d="M47.6406 25.4564H78.4838M47.6406 30.0507H56.1717M60.7654 30.0507H78.4838M47.6406 35.1554H66.0153M70.609 35.1554H78.4838M47.6406 39.7496H66.0153M71.9214 39.7496H70.609" stroke="#1D397A" stroke-width="2" stroke-linecap="round" stroke-linejoin="round"/>
<path d="M9.27539 57.5635H40.1186M9.27539 62.1577H17.8065M22.4002 62.1577H40.1186M9.27539 67.2624H27.6501M32.2437 67.2624H40.1186M9.27539 71.8567H27.6501M33.5562 71.8567H32.2437" stroke="#1D397A" stroke-width="2" stroke-linecap="round" stroke-linejoin="round"/>
</g>
<defs>
<clipPath id="clip0_153_19">
<rect width="90" height="90" fill="white"/>
</clipPath>
</defs>
</svg>
