<svg width="1816" height="1325" viewBox="0 0 1816 1325" fill="none" xmlns="http://www.w3.org/2000/svg">
<g clip-path="url(#clip0_269_143)">
<mask id="mask0_269_143" style="mask-type:alpha" maskUnits="userSpaceOnUse" x="0" y="0" width="1816" height="1325">
<path d="M0 0H1816V1021.81C1816 1046.62 1797.81 1067.67 1773.27 1071.28L57.273 1323.58C27.0878 1328.02 0 1304.62 0 1274.11V0Z" fill="#1D397A"/>
</mask>
<g mask="url(#mask0_269_143)">
<g opacity="0.2">
<path d="M1219.04 533.511C1215.16 533.845 1210.55 534.015 1202.86 534.022C1195.16 534.029 1191.89 533.867 1187.16 533.541C1183.96 533.544 1177.57 535.236 1177.66 541.976C1177.75 548.716 1177.99 566.261 1178.1 574.191C1178.3 576.669 1180.22 581.723 1186.3 582.113C1193.89 582.602 1199.83 581.109 1210.45 581.099C1218.95 581.091 1222.71 581.088 1226.26 581.084L1225.66 536.479" stroke="white" stroke-width="4" stroke-linecap="round" stroke-linejoin="round"/>
<rect width="5.5461" height="16.2253" rx="2.77305" transform="matrix(1 -0.000948039 0.0134209 0.99991 1188.86 549.765)" fill="white"/>
<rect width="5.5461" height="16.2253" rx="2.77305" transform="matrix(1 -0.000948039 0.0134209 0.99991 1199.95 549.753)" fill="white"/>
<rect width="5.5461" height="16.2253" rx="2.77305" transform="matrix(1 -0.000948039 0.0134209 0.99991 1211.04 549.743)" fill="white"/>
<path d="M1237.7 582.068L1326.97 627.321C1330.63 628.661 1338.66 629.224 1341.58 620.758C1344.5 612.293 1341.64 530.923 1339.85 491.297C1339.01 487.604 1335.35 481.025 1327.42 484.256C1319.5 487.488 1262.9 516.893 1235.59 531.192" stroke="white" stroke-width="4" stroke-linecap="round" stroke-linejoin="round"/>
<path d="M1316.75 499.132C1313.08 528.234 1324.39 563.894 1318.32 615.527" stroke="white" stroke-width="4" stroke-linecap="round" stroke-linejoin="round"/>
<path d="M1194.44 590.478L1214.6 650.23L1233.96 650.212L1213.82 591.839" stroke="white" stroke-width="4" stroke-linecap="round" stroke-linejoin="round"/>
<path d="M1477.32 383.656C1494.28 373.744 1534.4 364.718 1559.23 407.914" stroke="white" stroke-width="4" stroke-linecap="round" stroke-linejoin="round"/>
<path d="M1505.88 426.565C1504.01 427.488 1499.94 430.721 1498.68 436.264C1497.43 441.807 1503.97 444.75 1507.4 445.529C1509.31 445.692 1514.05 445.581 1517.78 443.836C1521.5 442.092 1520.96 435.924 1520.22 433.059C1519.14 431.733 1515.86 428.829 1511.42 427.823M1486.33 409.985C1495.59 405.88 1518.84 402.469 1537.8 421.666" stroke="white" stroke-width="4" stroke-linecap="round" stroke-linejoin="round"/>
<path d="M1464.96 551.462C1464.12 551.97 1462.26 553.706 1461.61 556.583C1460.95 559.46 1463.8 560.862 1465.31 561.204C1466.15 561.255 1468.25 561.116 1469.93 560.152C1471.61 559.189 1471.48 556.022 1471.2 554.558" stroke="white" stroke-width="4" stroke-linecap="round" stroke-linejoin="round"/>
<path d="M1482.84 574.849C1482 575.357 1480.14 577.093 1479.49 579.97C1478.84 582.847 1481.68 584.25 1483.19 584.591C1484.03 584.642 1486.13 584.503 1487.81 583.54C1489.49 582.576 1489.36 579.409 1489.08 577.946" stroke="white" stroke-width="4" stroke-linecap="round" stroke-linejoin="round"/>
<path d="M1496.88 600.583C1496.04 601.092 1494.18 602.827 1493.53 605.704C1492.87 608.581 1495.72 609.984 1497.23 610.326C1498.07 610.377 1500.17 610.237 1501.85 609.274C1503.53 608.311 1503.4 605.143 1503.12 603.68" stroke="white" stroke-width="4" stroke-linecap="round" stroke-linejoin="round"/>
<path d="M1409.17 441.85C1400.18 452.114 1395.7 454.714 1394.59 454.731C1401.21 454.885 1419.26 453.855 1438.46 448.499C1462.46 441.804 1485.79 460.052 1518.87 468.369C1545.33 475.023 1567.61 478.622 1575.43 479.589" stroke="white" stroke-width="4" stroke-linecap="round" stroke-linejoin="round"/>
<path d="M1587.04 479.796C1598.54 480.515 1622.58 473.615 1626.82 440.254C1632.13 398.554 1594.83 394.137 1586.83 396.369C1589.31 389.106 1593.11 369.46 1583.17 357.49C1570.75 342.528 1558.87 339.833 1545.69 346.555C1540.95 331.987 1521.58 303.846 1482.05 307.825C1442.52 311.803 1432.5 345.149 1432.44 361.325M1426.29 366.405C1417.53 367.114 1399.2 373.531 1395.99 393.527C1392.79 413.522 1400.03 429.523 1404.06 435.023" stroke="white" stroke-width="4" stroke-linecap="round" stroke-linejoin="round"/>
<path d="M1415.98 572.289C1408.06 576.123 1404.78 576.566 1404.13 576.309C1407.93 577.989 1426.58 581.35 1438.43 585.707C1461.37 594.134 1449.32 610.727 1462.64 625.024C1474.19 637.42 1494.98 638.336 1501.67 635.495" stroke="white" stroke-width="4" stroke-linecap="round" stroke-linejoin="round"/>
<path d="M1510.32 634.489C1516.79 637.666 1532.56 639.407 1543.83 620.954C1557.91 597.888 1537.44 586.362 1532.22 585.746C1535.57 582.102 1542.96 571.546 1540.35 562.175C1537.1 550.462 1530.92 546.039 1521.5 546.8C1522.6 537.16 1518.8 516.089 1494.82 508.926C1470.84 501.764 1460.15 514.197 1455.84 523.622M1447.02 529.739C1441.75 528.05 1429.43 527.398 1422.29 538.299C1415.15 549.2 1415.13 560.277 1416.01 564.453" stroke="white" stroke-width="4" stroke-linecap="round" stroke-linejoin="round"/>
</g>
<g opacity="0.06">
<path d="M818.682 268.339L833.104 301.326C835.442 306.676 839.34 315.591 824.184 322.217C808.136 329.234 804.238 320.318 801.899 314.969L786.698 280.198C772.602 280.343 741.213 273.322 728.428 244.079C712.447 207.526 739.753 184.968 755.412 177.06C771.07 169.152 811.799 165.151 828.282 200.423C841.468 228.641 829.273 248.841 812.723 257.138" stroke="white" stroke-width="4" stroke-linecap="round" stroke-linejoin="round"/>
<path d="M799.895 303.102C806.144 299.259 819.764 291.417 824.247 290.789" stroke="white" stroke-width="2" stroke-linecap="round"/>
<path d="M791.338 215.515C783.87 225.152 801.975 276.281 806.029 285.553C798.974 275.894 784.031 247.382 769.936 241.863M767.759 258.744C774.001 250.351 790.253 231.494 805.321 223.207" stroke="white" stroke-width="2" stroke-linecap="round" stroke-linejoin="round"/>
<path d="M843.105 183.323L883.561 159.264M827.066 156.352L858.055 113.069M795.978 150.828L801 121.022M755.191 164.413L735.312 118.944M719.305 184.35L694.905 167.406M703.92 212.315L656.34 205.506M712.047 240.621L669.589 252.812" stroke="white" stroke-width="2" stroke-linecap="round"/>
</g>
<g opacity="0.06">
<path d="M1125.68 129.846C1110.85 145.659 1081.96 193.583 1084.99 258.775C1088.02 323.968 1156.06 337.138 1189.7 335.574C1207.67 331.714 1251.05 316.389 1280.75 285.971C1310.46 255.553 1289.2 188.788 1274.86 159.207C1261.95 137.77 1223.59 101.443 1173.39 127.628" stroke="white" stroke-width="4" stroke-linecap="round" stroke-linejoin="round"/>
<path d="M1132.87 200.164C1134.15 214.144 1136.77 235.436 1138.76 245.599C1141.23 258.302 1142.85 293.019 1143.1 298.501C1143.31 302.886 1163.91 299.365 1174.19 297.056C1173.07 279.712 1170.47 241.378 1169.03 226.795C1167.6 212.212 1167.13 192.701 1167.08 184.769L1134.11 186.301" stroke="white" stroke-width="4" stroke-linecap="round" stroke-linejoin="round"/>
<path d="M1182.89 218.545C1184.01 229.71 1182.64 244.282 1184.47 252.391C1186.74 262.527 1188.03 290.266 1188.23 294.646C1188.4 298.149 1208.12 295.184 1217.96 293.264C1217.01 279.408 1214.81 248.785 1213.54 237.139C1212.28 225.493 1211.98 209.901 1211.98 203.56L1180.46 205.026" stroke="white" stroke-width="4" stroke-linecap="round" stroke-linejoin="round"/>
<path d="M1252.79 222.199C1255.71 234.58 1257.48 274.134 1258 292.363C1249.61 294.058 1232.74 295.885 1232.45 289.64C1232.16 283.395 1227.26 248.158 1224.85 231.321C1230.62 229.097 1236 226.063 1239.87 225.101" stroke="white" stroke-width="4" stroke-linecap="round" stroke-linejoin="round"/>
<path d="M1290.22 222.125C1281.09 216.619 1262.42 204.829 1260.85 201.708C1259.28 198.587 1246.54 207.616 1240.37 212.521C1234.17 207.331 1220.19 192.66 1213.88 175.488L1193.4 186.301C1189.47 179.802 1180.63 165.243 1176.7 159.005L1162.07 164.914L1145.41 148.363L1151.24 139.552L1133.65 135.703L1139.57 153.266" stroke="white" stroke-width="4" stroke-linecap="round" stroke-linejoin="round"/>
</g>
<g opacity="0.06">
<path d="M83.1763 732.468C83.302 739.403 82.5303 741.875 82.1288 742.244C84.602 740.148 93.2213 728.159 100.3 721.311C113.993 708.066 121.932 722.375 136.653 717.972C149.415 714.156 156.989 699.794 157.168 694.077" stroke="white" stroke-width="4" stroke-linecap="round" stroke-linejoin="round"/>
<path d="M159.318 687.622C163.758 684.162 170.253 673.641 160.715 659.234C148.791 641.225 133.69 651.64 131.508 655.116C130.001 651.473 124.857 642.566 117.245 641.128C107.731 639.329 102.494 642.142 99.91 649.058C93.3343 644.913 76.9009 640.229 63.7728 654.651C50.6446 669.073 56.0402 680.971 61.3938 687.308M62.8643 695.675C59.8965 698.804 55.3295 707.277 60.8042 716.128C66.2788 724.979 74.2465 728.868 77.546 729.706" stroke="white" stroke-width="4" stroke-linecap="round" stroke-linejoin="round"/>
<path d="M123.625 836.156C120.2 829.561 110.857 816.029 100.894 814.656C91.5531 813.37 89.4537 811.303 88.7302 808.834C88.0067 806.364 88.7315 803.738 93.0775 798.174C97.4236 792.61 92.4315 775.569 89.6086 771.032C86.7858 766.495 80.299 761.691 67.0902 765.561C53.8815 769.43 48.2604 777.781 48.3314 783.124C48.4025 788.466 54.4811 804.117 64.5453 807.873C68.0206 809.537 69.9753 811.109 70.8434 814.073C71.5669 816.543 72.2904 819.013 65.482 826.371C59.4364 832.904 57.4397 844.817 61.0572 857.166C69.9277 856.421 90.3535 852.538 110.983 842.87" stroke="white" stroke-width="4" stroke-linecap="round" stroke-linejoin="round"/>
</g>
<g opacity="0.06">
<path d="M-100.357 197.091C-64.9327 266.844 -33.5448 372.564 -22.2788 416.705C44.0148 391.476 186.939 338.339 228.287 327.623M-100.357 197.091L-101.275 250.545M-100.357 197.091L-57.3523 219.987M228.287 327.623L185.084 369.546M228.287 327.623L183.383 308.723" stroke="white" stroke-width="4" stroke-linecap="round" stroke-linejoin="round"/>
<path d="M-22.9395 284.108C-14.293 300.957 8.26132 368.755 18.4577 400.548L46.4621 390.592C46.2266 378.722 15.8181 309.068 0.643233 275.724L-22.9395 284.108Z" stroke="white" stroke-width="4" stroke-linecap="round" stroke-linejoin="round"/>
<path d="M49.7734 208.45C60.9869 231.699 92.1747 324.259 106.367 367.633L137.443 356.585C136.211 340.681 95.9293 244.999 75.9428 199.146L49.7734 208.45Z" stroke="white" stroke-width="4" stroke-linecap="round" stroke-linejoin="round"/>
<path d="M-42.7758 256.311C-12.5765 232.293 49.8008 169.275 57.7157 109.35M57.7157 109.35L68.72 140.302L39.3731 132.473L57.7157 109.35Z" stroke="white" stroke-width="4" stroke-linecap="round" stroke-linejoin="round"/>
<path d="M12.7538 244.855C37.246 292.398 53.9254 357.696 59.2036 384.402L84.4708 375.418L39.4246 235.373L12.7538 244.855Z" stroke="white" stroke-width="4" stroke-linecap="round" stroke-linejoin="round"/>
</g>
<g opacity="0.06">
<path d="M189.845 1420.74C188.709 1416.22 194.707 1390.43 227.784 1323.42C269.131 1239.66 284.674 1212.15 297.25 1187.56C252.969 1161.47 150.784 1106.47 96.2904 1095.15C67.8073 1144.12 6.55913 1260.25 -10.5681 1333.05C47.0572 1358.08 164.291 1410.04 172.224 1417.64" stroke="white" stroke-width="4" stroke-linecap="round" stroke-linejoin="round"/>
<path d="M98.8618 1136.36C94.8783 1143.18 86.0677 1159.07 82.693 1167.98C90.5012 1171.97 107.523 1180.67 113.145 1183.55C118.135 1173.79 128.475 1153.57 129.913 1150.75L104.145 1137.58M95.7614 1153.98C96.7331 1154.97 99.0145 1158.59 100.367 1165.2C109.044 1159.78 131.214 1149.94 150.475 1153.88" stroke="white" stroke-width="4" stroke-linecap="round" stroke-linejoin="round"/>
<path d="M51.1255 1268.56C47.142 1275.38 38.3314 1291.27 34.9567 1300.18C42.7649 1304.17 59.7867 1312.88 65.4086 1315.75C70.399 1305.99 80.739 1285.77 82.1762 1282.96L56.4089 1269.78M48.0251 1286.18C48.9967 1287.17 51.2781 1290.8 52.6307 1297.4C61.308 1291.98 83.4778 1282.14 102.739 1286.08" stroke="white" stroke-width="4" stroke-linecap="round" stroke-linejoin="round"/>
<path d="M67.6952 1200.2C63.104 1209.18 53.6769 1228.2 52.6976 1232.42C51.7183 1236.65 74.9336 1245.76 86.6637 1249.79L104.03 1215.82C93.8705 1211.61 73.6711 1202.96 74.1502 1202.02M69.9583 1210.22C75.5268 1223.41 86.882 1251.67 87.7556 1259.21M58.5803 1232.48C72.1686 1226.13 104.286 1213.59 124.047 1214.24" stroke="white" stroke-width="4" stroke-linecap="round" stroke-linejoin="round"/>
<path d="M142.01 1179.1C171.3 1193.09 231.046 1222.26 235.709 1227.01M114.384 1241.8C143.084 1255.98 202.602 1284.25 211.078 1283.85M96.1014 1312.24C126.58 1324.86 188.121 1350.72 190.452 1353.09" stroke="white" stroke-width="4" stroke-linecap="round" stroke-linejoin="round"/>
</g>
<g opacity="0.06">
<path d="M1499.64 233.375L1585.32 166.099L1610 241.165C1620.69 235.837 1644.62 223.361 1654.83 216.09L1681.34 278.409C1712.83 242.389 1778.81 167.949 1790.77 158.348M1790.77 158.348L1808.6 174.034L1823.95 128.158L1775.12 143.394L1790.77 158.348Z" stroke="white" stroke-width="4" stroke-linecap="round" stroke-linejoin="round"/>
<path d="M1591.82 161.221C1593.88 164.745 1595.81 172.518 1587.06 175.421C1576.13 179.049 1571.05 165.201 1573.24 158.648C1575.44 152.094 1577.99 148.091 1588.19 146.647C1598.39 145.203 1601.3 154.677 1602.02 159.777" stroke="white" stroke-width="4" stroke-linecap="round" stroke-linejoin="round"/>
<path d="M1687.83 273.532C1689.89 277.055 1691.83 284.828 1683.08 287.731C1672.15 291.36 1667.07 277.512 1669.26 270.958C1671.45 264.405 1674.01 260.401 1684.21 258.957C1694.41 257.513 1697.31 266.987 1698.03 272.088" stroke="white" stroke-width="4" stroke-linecap="round" stroke-linejoin="round"/>
<path d="M1614.01 243.096C1613.42 245.808 1610.82 250.573 1605.13 247.932C1598.02 244.63 1601.84 235.376 1605.94 233.144C1610.04 230.912 1613.15 230.116 1618.89 234.162C1624.64 238.208 1621.74 244.27 1619.76 247.142" stroke="white" stroke-width="4" stroke-linecap="round" stroke-linejoin="round"/>
<path d="M1659 211.65C1661.46 212.654 1665.4 215.809 1661.45 220.401C1656.52 226.141 1648.56 221.11 1647.43 217.072C1646.3 213.033 1646.3 210.127 1651.62 205.734C1656.93 201.341 1662.04 204.99 1664.31 207.257" stroke="white" stroke-width="4" stroke-linecap="round" stroke-linejoin="round"/>
</g>
<g opacity="0.06">
<path d="M1806.7 640.529C1809.83 641.34 1818.37 642.362 1827.49 639.961C1836.61 637.56 1895.28 617.963 1923.47 608.465" stroke="white" stroke-width="4" stroke-linecap="round" stroke-linejoin="round"/>
<path d="M1910.19 603.562L1735.06 539.008L1801.03 636.38" stroke="white" stroke-width="4" stroke-linecap="round" stroke-linejoin="round"/>
<path d="M1927.67 611.04C1918.86 638.66 1896.66 703.53 1878.34 742.051C1826.57 724.336 1716.04 685.511 1688.12 671.926" stroke="white" stroke-width="4" stroke-linecap="round" stroke-linejoin="round"/>
<path d="M1731.34 540.724L1683.59 670.257" stroke="white" stroke-width="4" stroke-linecap="round" stroke-linejoin="round"/>
<path d="M1820.53 647.685L1875.25 733.707M1792.21 635.187L1690.36 668.638" stroke="white" stroke-width="4" stroke-linecap="round" stroke-linejoin="round"/>
</g>
</g>
</g>
<defs>
<clipPath id="clip0_269_143">
<rect width="1816" height="1325" fill="white"/>
</clipPath>
</defs>
</svg>
