<svg width="77" height="77" viewBox="0 0 77 77" fill="none" xmlns="http://www.w3.org/2000/svg">
<g clip-path="url(#clip0_134_159)">
<path fill-rule="evenodd" clip-rule="evenodd" d="M10.5004 76.9999C16.2767 76.9999 21.0008 72.2758 21.0008 66.4995V28.2144C21.0008 28.0958 20.903 27.998 20.7874 27.998H10.5004C4.72711 27.998 0 32.7251 0 38.4984V66.4995C0 72.2758 4.72711 76.9999 10.5004 76.9999Z" fill="#6F85B7"/>
<path fill-rule="evenodd" clip-rule="evenodd" d="M77.0009 10.5004C77.0009 16.2737 72.2767 20.9978 66.5034 20.9978H28.002V10.5004C28.002 4.72413 32.7261 0 38.5024 0H66.5034C72.2767 0 77.0009 4.72413 77.0009 10.5004Z" fill="#6F85B7"/>
<path d="M49.0028 66.4994C49.0028 60.7002 44.3016 55.999 38.5024 55.999C32.7031 55.999 28.002 60.7002 28.002 66.4994C28.002 72.2986 32.7031 76.9998 38.5024 76.9998C44.3016 76.9998 49.0028 72.2986 49.0028 66.4994Z" fill="white"/>
<path fill-rule="evenodd" clip-rule="evenodd" d="M52.5029 48.9988H28.002V38.4984C28.002 32.7251 32.7261 27.998 38.5024 27.998H52.5029C58.2762 27.998 63.0033 32.7251 63.0033 38.4984C63.0033 44.2747 58.2762 48.9988 52.5029 48.9988Z" fill="#6F85B7"/>
<path d="M21.0008 10.5004C21.0008 4.70117 16.2996 0 10.5004 0C4.70119 0 0 4.70117 0 10.5004C0 16.2996 4.70119 21.0008 10.5004 21.0008C16.2996 21.0008 21.0008 16.2996 21.0008 10.5004Z" fill="white"/>
</g>
<defs>
<clipPath id="clip0_134_159">
<rect width="77" height="77" fill="white"/>
</clipPath>
</defs>
</svg>
