<svg width="180" height="30" viewBox="0 0 180 30" fill="none" xmlns="http://www.w3.org/2000/svg">
<g clip-path="url(#clip0_1_7)">
<path d="M176.802 17.1971L176.454 16.849H173.638V19.1009H176.454L176.802 18.7528V17.1971ZM170.803 21.3895V11.4478H173.64V14.5604H177.684L179.642 16.5195V19.4297L177.684 21.3889L170.803 21.3895ZM168.974 11.4484V21.3889H166.139V14.1032H164.054L163.396 19.4303L161.988 20.895L159.592 21.7551L158.696 19.2292L160.067 18.7347L160.671 18.1125L161.494 11.4484H168.974ZM152.569 13.737L152.222 14.0846V15.4397H155.111L155.367 15.1831V14.0846L155.02 13.737H152.569ZM155.294 18.9178L157.58 18.1854L158.33 20.5469L155.642 21.3889H151.362L149.387 19.4303V13.407L151.362 11.4484H156.227L158.202 13.4076V15.9522L156.41 17.7277H152.221V18.5697L152.569 18.9178H155.294ZM144.407 15.2198H142.435L141.523 15.8974V18.3872L141.869 18.7347H144.407L144.754 18.3866V15.5679L144.407 15.2198ZM141.523 12.5102V13.2426L142.437 12.5656H145.638L147.595 14.5242V19.4303L145.638 21.3895H140.645L138.687 19.4303V11.6501L141.211 9.05073L144.595 8.39184L146.387 7.12828L148.015 9.43499L145.912 10.9178L142.418 11.5953L141.523 12.5102ZM131.464 13.737L131.116 14.0846V15.4397H134.006L134.262 15.1831V14.0846L133.914 13.737H131.464ZM134.189 18.9178L136.475 18.1854L137.225 20.5469L134.536 21.3889H130.257L128.282 19.4303V13.407L130.257 11.4484H135.121L137.097 13.4076V15.9522L135.304 17.7277H131.116V18.5697L131.464 18.9178H134.189ZM115.498 8.39125L119.32 14.6338L119.539 15.3294H119.613L119.832 14.6338L123.654 8.39125H126.27V21.3889H123.435V14.4694L123.636 13.2426H123.563L123.087 14.4507L120.545 18.6064H118.607L116.065 14.4507L115.589 13.2426H115.516L115.717 14.4694V21.3889H112.882V8.39184L115.498 8.39125ZM103.001 18.1487V17.3802H100.184L99.8371 17.7277V18.7528L100.184 19.1009H102.178L103.001 18.1487ZM105.836 18.2956L106.494 21.151L104.245 21.6641L103.915 20.2356L102.909 21.3889H98.9773L97.0026 19.4303V17.0507L98.9773 15.0915H103.001V14.2676L102.654 13.9201H100.13L97.8437 14.6525L97.0934 12.291L99.7824 11.4484H103.86L105.836 13.4076V18.2956ZM95.7222 17.1055V19.4484L93.7835 21.3889H86.9068V11.449H93.7649L95.4111 13.0968V15.751L94.6428 16.319L95.7222 17.1055ZM92.887 17.9277L92.2468 17.4531H89.742V19.095H92.5398L92.887 18.7487V17.9277ZM92.1874 15.165L92.5707 14.8904V14.0846L92.2235 13.737H89.742V15.165H92.1874ZM82.7971 17.1971L82.4494 16.849H79.6276V19.1009H82.4494L82.7977 18.7528L82.7971 17.1971ZM76.7931 21.3895V11.4478H79.6276V14.5604H83.6697L85.627 16.5195V19.4297L83.6697 21.3889L76.7931 21.3895ZM74.9697 11.4484V21.3889H72.1334V14.1032H70.0474L69.3892 19.4303L67.9795 20.895L65.5824 21.7551L64.6853 19.2292L66.0583 18.7347L66.6618 18.1125L67.4855 11.4484H74.9697ZM60.6496 18.1487V17.3802H57.8278L57.48 17.7277V18.7528L57.8278 19.1009H59.8253L60.6496 18.1487ZM63.4789 18.2956L64.1371 21.151L61.8874 21.6641L61.5583 20.2356L60.5523 21.3889H56.6202L54.6455 19.4303V17.0507L56.6202 15.0915H60.6437V14.2676L60.2965 13.9201H57.7725L55.4866 14.6525L54.7364 12.291L57.4253 11.4484H61.503L63.4789 13.4076V18.2956ZM42.2272 8.39067L46.0492 14.6332L46.2688 15.3289H46.3422L46.5612 14.6332L50.3837 8.39067H52.9993V21.3883H50.1641V14.4694L50.3657 13.2426H50.2923L49.8169 14.4507L47.2748 18.6064H45.3362L42.794 14.4507L42.3187 13.2426H42.2453L42.4463 14.4694V21.3889H39.6117V8.39184L42.2272 8.39067Z" fill="black"/>
<path d="M0 2.46356H13.3981V27.5364H0V2.46356Z" fill="#E61E3C"/>
<path d="M0 2.46356H13.3981V27.5364H0V2.46356Z" fill="url(#paint0_linear_1_7)"/>
<path d="M0 2.46356H13.3981V27.5364L0 2.46356Z" fill="#C8142D"/>
<path d="M13.3981 0.714287H28.5437V29.2857H13.3981V0.714287Z" fill="#FF8C00"/>
<path d="M13.3981 0.714287H28.5437L13.3981 29.2857V0.714287Z" fill="#E66900"/>
</g>
<defs>
<linearGradient id="paint0_linear_1_7" x1="10.4854" y1="15" x2="13.3981" y2="15" gradientUnits="userSpaceOnUse">
<stop stop-opacity="0"/>
<stop offset="1" stop-opacity="0.15"/>
</linearGradient>
<clipPath id="clip0_1_7">
<rect width="180" height="28.5714" fill="white" transform="translate(0 0.714287)"/>
</clipPath>
</defs>
</svg>
