<svg width="90" height="90" viewBox="0 0 90 90" fill="none" xmlns="http://www.w3.org/2000/svg">
<path d="M45.529 60.514C46.799 60.387 50.101 59.5996 53.1489 57.466C56.1969 55.3324 75.2467 40.0672 84.3907 32.7012C84.3907 32.7012 63.4358 13.2704 56.9589 7.17448C50.482 1.07856 49.4152 0.773738 43.624 1.07854" stroke="#1D397A" stroke-width="2" stroke-linecap="round" stroke-linejoin="round"/>
<path d="M40.9563 2.22156L5.14258 32.7013L42.8612 59.752" stroke="#1D397A" stroke-width="2" stroke-linecap="round" stroke-linejoin="round"/>
<path d="M86.2956 33.0823C86.8036 44.5122 87.4386 71.5629 85.9146 88.3268C64.3248 88.8348 18.0972 89.546 5.90527 88.3268" stroke="#1D397A" stroke-width="2" stroke-linecap="round" stroke-linejoin="round"/>
<path d="M4 33.8444V88.3269" stroke="#1D397A" stroke-width="2" stroke-linecap="round" stroke-linejoin="round"/>
<path d="M51.6257 61.276L83.6294 85.6598M39.4338 60.514L6.28711 86.8028" stroke="#1D397A" stroke-width="2" stroke-linecap="round" stroke-linejoin="round"/>
<path d="M47.1196 48.08C46.7276 49.8786 45.8912 52.7591 42.2441 55.011C42.7357 54.3666 43.2805 51.8024 41.5268 46.7004C38.3132 47.0325 30.9931 46.8625 27.4219 43.5262C22.9578 39.3558 23.3715 32.2609 23.8349 30.4972C24.2984 28.7335 28.7777 17.3888 41.2188 13.6474C51.1717 10.6543 58.775 13.3772 61.3326 15.1128C63.1909 16.1974 67.3372 19.8233 69.0549 25.6507C70.7727 31.4782 67.241 36.9706 65.1832 39.2824C63.1254 41.5942 56.3872 45.1224 48.507 46.2622" stroke="#1D397A" stroke-width="2" stroke-linecap="round" stroke-linejoin="round"/>
<path d="M46.9385 26.6566L47.1578 27.2943M48.5826 31.4397C48.8018 32.0774 49.4853 33.34 50.4659 33.2882C51.6915 33.2235 53.1713 31.8235 53.0468 29.9052C52.9223 27.987 51.4626 25.8147 49.7487 24.9776C48.0347 24.1405 46.2162 23.5176 43.9841 24.2849C41.752 25.0521 39.9035 26.9353 39.5048 29.9247C39.1859 32.3163 40.5709 35.6196 42.2349 36.8304C43.899 38.0412 45.2082 38.168 47.4166 37.9017C49.8131 37.6128 51.6118 36.1032 52.4588 35.4556M48.5826 31.4397L47.1578 27.2943M48.5826 31.4397C48.6423 33.2732 46.7939 34.0155 45.8373 34.3443C44.8807 34.6731 43.4478 34.2386 42.838 32.8794C42.0757 31.1804 42.5765 30.0953 43.2815 28.9832C43.8595 28.0714 46.0932 27.4819 47.1578 27.2943" stroke="#1D397A" stroke-width="2" stroke-linecap="round" stroke-linejoin="round"/>
</svg>
