<svg width="90" height="90" viewBox="0 0 90 90" fill="none" xmlns="http://www.w3.org/2000/svg">
<g clip-path="url(#clip0_153_23)">
<path d="M36.9861 10.6202C35.7984 10.0264 32.4967 9.19503 28.7911 10.6202M38.4113 11.6892C40.1929 12.6393 43.7559 16.1786 43.7559 22.7346C43.7559 29.2906 35.5609 32.3548 32.7105 32.3548C29.86 32.3548 21.665 29.1481 21.665 22.7346C21.665 15.6085 24.9905 12.4018 26.6533 11.6892L32.7105 23.4472L37.2021 14.1833" stroke="#1D397A" stroke-width="2" stroke-linecap="round" stroke-linejoin="round"/>
<path d="M88.6517 86.1614C88.0785 83.4585 86.015 77.6713 82.3466 76.1449C78.9075 74.714 78.3343 73.7601 78.3343 72.8061C78.3343 71.8522 78.9075 70.9936 81.2003 69.4673C83.493 67.941 83.493 61.3588 82.9198 59.4509C82.3466 57.543 80.3978 55.1581 74.8952 55.1581C69.3926 55.1581 66.2975 57.543 65.7243 59.4509C65.1511 61.3588 65.7243 67.5594 69.1634 69.9443C70.3097 70.8982 70.8829 71.6614 70.8829 72.8061C70.8829 73.7601 70.8829 74.714 67.4438 76.6219C64.3901 78.316 62.2852 82.3456 62.2852 87.1153C65.7721 87.7748 74.0453 88.5218 83.0468 87.2323" stroke="#1D397A" stroke-width="2" stroke-linecap="round" stroke-linejoin="round"/>
<path d="M82.9495 47.1785C82.2679 43.7118 79.814 36.289 75.4516 34.3314C71.3619 32.4961 70.6802 31.2725 70.6802 30.049C70.6802 28.8254 71.3619 27.7243 74.0884 25.7666C76.8149 23.8089 76.8149 15.3665 76.1332 12.9194C75.4516 10.4724 73.1341 7.41351 66.5905 7.41351C60.0469 7.41351 56.3661 10.4724 55.6845 12.9194C55.0029 15.3665 55.6845 23.3195 59.7742 26.3784C61.1375 27.6019 61.8191 28.5807 61.8191 30.049C61.8191 31.2725 61.8191 32.4961 57.7294 34.9431C54.0978 37.116 51.5947 42.2844 51.5947 48.4021C55.7414 49.2479 65.5797 50.206 76.2842 48.5522" stroke="#1D397A" stroke-width="2" stroke-linecap="round" stroke-linejoin="round"/>
<path d="M57.3316 87.2233C56.7739 84.5204 54.7662 78.7331 51.197 77.2068C47.8508 75.7759 47.2932 74.822 47.2932 73.868C47.2932 72.9141 47.8508 72.0555 50.0816 70.5292C52.3124 69.0029 52.3124 62.4207 51.7547 60.5128C51.197 58.6049 49.3008 56.22 43.947 56.22C38.5931 56.22 35.5816 58.6049 35.0239 60.5128C34.4662 62.4207 35.0239 68.6213 38.3701 71.0062C39.4854 71.9601 40.0431 72.7233 40.0431 73.868C40.0431 74.822 40.0431 75.7759 36.697 77.6838C33.7257 79.3779 31.6777 83.4075 31.6777 88.1772C35.0705 88.8367 43.12 89.5837 51.8782 88.2942" stroke="#1D397A" stroke-width="2" stroke-linecap="round" stroke-linejoin="round"/>
<path d="M27.3665 86.8741C26.7933 84.1712 24.7299 78.384 21.0615 76.8576C17.6224 75.4267 17.0492 74.4728 17.0492 73.5188C17.0492 72.5649 17.6224 71.7063 19.9151 70.18C22.2078 68.6537 22.2078 62.0715 21.6347 60.1636C21.0615 58.2557 19.1126 55.8708 13.6101 55.8708C8.10749 55.8708 5.01229 58.2557 4.43911 60.1636C3.86592 62.0715 4.43911 68.2721 7.87822 70.657C9.02459 71.6109 9.59777 72.3741 9.59777 73.5188C9.59777 74.4728 9.59777 75.4267 6.15866 77.3346C3.10489 79.0287 1 83.0583 1 87.828C4.48699 88.4875 12.7601 89.2345 21.7616 87.9451" stroke="#1D397A" stroke-width="2" stroke-linecap="round" stroke-linejoin="round"/>
<path d="M10.2706 6.6973V40.7524M10.2706 42.7688C10.1759 43.8106 11.01 45.8943 15.1047 45.8943M17.3798 45.8943H48.5731M72.2606 8.10353C72.1658 5.73569 70.8957 1 66.5735 1C62.2512 1 31.0068 1.18943 15.4619 1.28414M13.1145 1.28414C12.1665 1.663 10.2706 2.8185 10.2706 4.4097" stroke="#1D397A" stroke-width="2" stroke-linecap="round" stroke-linejoin="round"/>
</g>
<defs>
<clipPath id="clip0_153_23">
<rect width="90" height="90" fill="white"/>
</clipPath>
</defs>
</svg>
