<?xml version="1.0" encoding="utf-8"?><svg viewBox="0 0 40 40" xmlns="http://www.w3.org/2000/svg" xmlns:xlink="http://www.w3.org/1999/xlink"><style>:root>svg{display:none}:root>svg:target{display:block}</style><svg viewBox="0 0 36 37" id="arrow" xmlns="http://www.w3.org/2000/svg"><path d="M14.025 19.025a.72.72 0 01-.225-.525c0-.2.075-.375.225-.525l4.2-4.2c.225-.225.494-.281.807-.168.312.112.468.343.468.693v8.4c0 .35-.156.581-.468.693-.313.113-.582.057-.807-.168l-4.2-4.2zM3 18.5c0 2.075.394 4.025 1.182 5.85.787 1.825 1.855 3.412 3.205 4.762 1.35 1.35 2.938 2.419 4.763 3.206 1.825.788 3.775 1.182 5.85 1.182 2.075 0 4.025-.394 5.85-1.182 1.825-.787 3.412-1.855 4.762-3.205 1.35-1.35 2.42-2.938 3.208-4.763.786-1.825 1.18-3.775 1.18-5.85 0-2.075-.394-4.025-1.18-5.85a15.189 15.189 0 00-3.207-4.763c-1.35-1.35-2.938-2.418-4.763-3.205C22.025 3.894 20.075 3.5 18 3.5c-2.075 0-4.025.394-5.85 1.182-1.825.787-3.412 1.855-4.763 3.205-1.35 1.35-2.418 2.938-3.205 4.763C3.394 14.475 3 16.425 3 18.5z" fill-opacity=".64"/></svg><svg viewBox="0 0 20 20" id="inst" xmlns="http://www.w3.org/2000/svg"><path d="M17.456 6.92a5.442 5.442 0 00-.35-1.846 3.843 3.843 0 00-2.194-2.194 5.505 5.505 0 00-1.821-.35c-.802-.036-1.056-.046-3.091-.046s-2.296 0-3.092.046a5.505 5.505 0 00-1.82.35 3.839 3.839 0 00-2.195 2.194 5.462 5.462 0 00-.349 1.821c-.036.803-.046 1.057-.046 3.092s0 2.295.046 3.091c.013.624.13 1.239.35 1.823a3.842 3.842 0 002.194 2.193 5.49 5.49 0 001.821.375c.803.036 1.057.047 3.092.047s2.296 0 3.091-.047a5.494 5.494 0 001.822-.349 3.847 3.847 0 002.194-2.194c.22-.584.337-1.199.35-1.823.035-.801.046-1.056.046-3.091-.002-2.035-.002-2.294-.048-3.091zm-7.461 6.915a3.852 3.852 0 11-.002-7.703 3.852 3.852 0 01.002 7.703zm4.006-6.95a.898.898 0 11-.002-1.795.898.898 0 01.002 1.796z"/><path d="M9.995 12.485a2.502 2.502 0 100-5.005 2.502 2.502 0 000 5.005z"/></svg><svg viewBox="0 0 40 40" id="ok" xmlns="http://www.w3.org/2000/svg"><path d="M17.522 15.09a2.477 2.477 0 114.954-.046 2.477 2.477 0 01-4.954.047z"/><path d="M31.636 4H8.364A4.364 4.364 0 004 8.364v23.272A4.363 4.363 0 008.364 36h23.272A4.363 4.363 0 0036 31.636V8.364A4.363 4.363 0 0031.636 4zM20.02 10a5.061 5.061 0 11-.033 10.123A5.061 5.061 0 0120.02 10zm5.67 12.11a6.08 6.08 0 01-2.192 1.417c-.803.289-1.638.476-2.487.558.127.139.182.208.269.288 1.15 1.156 2.307 2.309 3.454 3.47a1.142 1.142 0 01.259 1.346 1.365 1.365 0 01-1.273.798 1.25 1.25 0 01-.81-.414c-.868-.875-1.754-1.733-2.605-2.624-.247-.26-.363-.21-.585.015-.874.909-1.764 1.785-2.656 2.667a1.112 1.112 0 01-1.346.24 1.359 1.359 0 01-.785-1.251c.026-.325.178-.626.421-.842 1.141-1.138 2.279-2.277 3.413-3.418.077-.076.146-.156.257-.273-1.551-.162-2.95-.545-4.146-1.48a5.54 5.54 0 01-.438-.363c-.524-.502-.576-1.078-.162-1.673.355-.507.95-.644 1.57-.353.116.06.228.13.334.207a6.797 6.797 0 007.533.07c.213-.175.461-.305.727-.38a1.151 1.151 0 011.318.527c.336.532.333 1.054-.07 1.469z"/></svg><svg viewBox="0 0 20 20" id="tg" xmlns="http://www.w3.org/2000/svg"><path d="M1.298 9.68l3.908 1.572 1.524 5.29c.066.357.464.428.729.214l2.186-1.93c.199-.215.53-.215.795 0l3.908 3.073a.451.451 0 00.729-.286L17.99 2.604c.067-.357-.264-.715-.596-.572L1.298 8.751c-.397.143-.397.786 0 .929zm5.233.786l7.685-5.074c.132-.072.265.142.132.214l-6.293 6.361c-.199.214-.398.5-.398.858L7.46 14.54c0 .215-.331.286-.398 0l-.795-3.145c-.198-.357-.066-.786.265-.929z"/></svg><svg viewBox="0 0 20 20" id="viber" xmlns="http://www.w3.org/2000/svg"><path d="M14.384 1.422a23.275 23.275 0 00-8.824 0c-1.284.281-2.904 1.857-3.183 3.094a17.928 17.928 0 000 7.314c.335 1.238 1.955 2.813 3.183 3.095a.12.12 0 01.112.112v3.545c0 .168.223.281.335.112l1.675-1.744s1.34-1.406 1.564-1.631c0 0 .056-.057.112-.057 1.675.057 3.406-.112 5.082-.394 1.284-.28 2.904-1.856 3.183-3.094.503-2.42.503-4.895 0-7.314-.335-1.181-1.955-2.757-3.24-3.038zm.056 10.577c-.28.563-.614 1.013-1.173 1.294l-.503.169c-.223-.056-.39-.113-.558-.169-1.787-.731-3.463-1.744-4.803-3.207A13.55 13.55 0 015.56 7.273c-.223-.506-.447-.956-.614-1.463-.168-.45.112-.9.39-1.237.28-.338.615-.563 1.006-.732.28-.169.559-.056.782.169.447.563.893 1.125 1.229 1.744.223.394.167.844-.224 1.125-.112.057-.167.113-.28.225-.055.057-.167.113-.222.225a.55.55 0 00-.056.507c.446 1.294 1.284 2.306 2.569 2.87.223.112.39.168.67.168.39-.056.558-.506.838-.732.279-.225.614-.225.949-.056.28.169.558.394.893.62.28.224.559.393.838.618.168.113.224.394.112.675zm-2.346-4.22c-.111 0-.056 0 0 0-.223 0-.279-.112-.335-.28 0-.113 0-.282-.056-.395a1.07 1.07 0 00-.39-.618l-.336-.17c-.167-.056-.279-.056-.447-.056-.167-.056-.223-.168-.223-.337 0-.113.168-.225.28-.225.893.056 1.563.562 1.675 1.631v.225c0 .113-.056.226-.168.226zm-.558-2.475c-.28-.113-.559-.225-.894-.281-.111 0-.279-.057-.39-.057-.168 0-.28-.112-.224-.28 0-.17.112-.282.28-.226.558.056 1.06.169 1.563.394 1.005.506 1.564 1.35 1.731 2.475v.732c-.056.225-.447.281-.502 0 0-.056-.056-.169-.056-.225 0-.507-.112-1.013-.335-1.463-.335-.506-.726-.844-1.173-1.069zm3.016 3.376c-.168 0-.28-.17-.28-.338 0-.337-.056-.675-.111-1.013-.224-1.8-1.676-3.263-3.407-3.544-.28-.056-.559-.056-.782-.113-.167 0-.39 0-.447-.225-.056-.168.112-.337.28-.337h.111c2.29.056.112 0 0 0 2.346.056 4.3 1.631 4.691 3.994.056.394.112.788.112 1.238.112.169 0 .338-.167.338z"/></svg><svg viewBox="0 0 20 20" id="vk" xmlns="http://www.w3.org/2000/svg"><path fill-rule="evenodd" clip-rule="evenodd" d="M18.934 5.156c.139-.44 0-.76-.616-.76h-2.045c-.516 0-.755.28-.894.58 0 0-1.052 2.562-2.522 4.224-.476.48-.694.64-.953.64-.139 0-.318-.16-.318-.6V5.136c0-.52-.158-.761-.595-.761H7.773a.495.495 0 00-.516.48c0 .5.735.621.814 2.022v3.045c0 .66-.117.781-.377.781-.695 0-2.383-2.582-3.396-5.525-.196-.583-.396-.803-.913-.803H1.32c-.596 0-.695.28-.695.58 0 .541.695 3.263 3.237 6.867 1.688 2.46 4.09 3.783 6.255 3.783 1.31 0 1.47-.3 1.47-.8v-1.862c0-.6.119-.7.536-.7.297 0 .834.159 2.045 1.34 1.39 1.401 1.628 2.042 2.403 2.042h2.045c.596 0 .874-.3.715-.88-.179-.581-.854-1.422-1.728-2.423-.476-.56-1.191-1.18-1.41-1.481-.297-.4-.218-.56 0-.92-.02 0 2.483-3.564 2.74-4.766"/></svg><svg viewBox="0 0 20 20" id="wa" xmlns="http://www.w3.org/2000/svg"><path d="M15.659 4.333A7.945 7.945 0 0010.027 2C5.624 2 2.056 5.556 2.056 9.944c0 1.39.39 2.778 1.059 3.945L2 18l4.237-1.111a8.151 8.151 0 003.79.944c4.405 0 7.973-3.555 7.973-7.944-.056-2.056-.836-4.056-2.341-5.556zm-1.784 8.445c-.168.444-.948.889-1.338.944-.335.056-.78.056-1.227-.055-.279-.111-.669-.223-1.115-.445-2.007-.833-3.29-2.833-3.4-3-.112-.11-.837-1.055-.837-2.055 0-1 .502-1.445.67-1.667.166-.222.39-.222.557-.222h.39c.111 0 .279-.056.446.333.167.389.557 1.389.613 1.445a.353.353 0 010 .333c-.056.111-.111.222-.223.333-.111.111-.223.278-.279.334-.111.11-.223.222-.111.388.111.223.502.834 1.115 1.39.78.666 1.394.888 1.617 1 .223.11.334.055.446-.056.111-.111.501-.556.613-.778.111-.222.279-.167.446-.111.167.055 1.17.555 1.338.667.223.11.334.166.39.222.056.166.056.555-.111 1z"/></svg><svg viewBox="0 0 20 20" id="yt" xmlns="http://www.w3.org/2000/svg"><path d="M18.385 5.783a2.195 2.195 0 00-1.547-1.549C15.473 3.867 10 3.867 10 3.867s-5.473 0-6.838.365a2.19 2.19 0 00-1.547 1.55C1.25 7.147 1.25 10 1.25 10s0 2.852.365 4.217a2.193 2.193 0 001.547 1.549c1.365.367 6.838.367 6.838.367s5.473 0 6.838-.367a2.19 2.19 0 001.547-1.55c.365-1.364.365-4.216.365-4.216s0-2.852-.365-4.217zM8.262 12.617V7.383l4.531 2.597-4.531 2.637z"/></svg></svg>