<?xml version="1.0" encoding="utf-8"?><svg viewBox="0 0 502.66 502.66" xmlns="http://www.w3.org/2000/svg" xmlns:xlink="http://www.w3.org/1999/xlink"><style>:root>svg{display:none}:root>svg:target{display:block}</style><svg viewBox="0 0 502.664 502.664" id="icon" xmlns="http://www.w3.org/2000/svg"><path d="M153.821 358.226L0 274.337v-46.463l153.821-83.414v54.574L46.636 250.523l107.185 53.431v54.272zm26.273 29.358L282.103 115.08h32.227L212.084 387.584h-31.99zm168.749-29.358v-54.272l107.164-52.999-107.164-52.59v-53.927l153.821 83.522v46.183l-153.821 84.083z"/></svg><svg viewBox="0 0 77 77" id="logo-fixed" xmlns="http://www.w3.org/2000/svg"><g clip-path="url(#ba)"><path fill-rule="evenodd" clip-rule="evenodd" d="M10.5 77C16.277 77 21 72.276 21 66.5V28.215a.217.217 0 00-.213-.217H10.5c-5.773 0-10.5 4.727-10.5 10.5V66.5C0 72.276 4.727 77 10.5 77zM77 10.5c0 5.774-4.723 10.498-10.497 10.498H28.002V10.5c0-5.776 4.724-10.5 10.5-10.5h28.001c5.774 0 10.498 4.724 10.498 10.5z"/><path d="M49.003 66.5c0-5.8-4.701-10.501-10.5-10.501-5.8 0-10.501 4.701-10.501 10.5 0 5.8 4.701 10.5 10.5 10.5 5.8 0 10.5-4.7 10.5-10.5z"/><path fill-rule="evenodd" clip-rule="evenodd" d="M52.503 48.999H28.002v-10.5c0-5.774 4.724-10.501 10.5-10.501h14c5.774 0 10.501 4.727 10.501 10.5 0 5.777-4.727 10.5-10.5 10.5z"/><path d="M21 10.5C21 4.701 16.3 0 10.5 0 4.701 0 0 4.701 0 10.5 0 16.3 4.701 21 10.5 21 16.3 21 21 16.3 21 10.5z"/></g><defs><clipPath id="ba"><path d="M0 0h77v77H0z"/></clipPath></defs></svg><svg viewBox="0 0 36 36" id="phone" xmlns="http://www.w3.org/2000/svg"><g clip-path="url(#ca)"><path d="M34.322 5.688L29.67 1.04A3.531 3.531 0 0027.166 0c-.948 0-1.84.371-2.508 1.04l-5.007 5.007a3.53 3.53 0 00-1.04 2.503c0 .948.372 1.84 1.04 2.508l3.662 3.66a17.206 17.206 0 01-3.517 5.073 17.272 17.272 0 01-5.073 3.53l-3.66-3.66a3.531 3.531 0 00-2.504-1.04c-.948 0-1.84.37-2.508 1.04L1.04 24.662A3.534 3.534 0 000 27.17c0 .948.371 1.84 1.04 2.508l4.644 4.644A5.742 5.742 0 009.734 36c.319 0 .625-.026.926-.079 5.89-.97 11.73-4.102 16.445-8.812 4.71-4.705 7.838-10.542 8.82-16.449a5.75 5.75 0 00-1.603-4.972z"/></g><defs><clipPath id="ca"><path d="M0 0h36v36H0z"/></clipPath></defs></svg><svg viewBox="0 0 36 36" id="text" xmlns="http://www.w3.org/2000/svg"><path fill-rule="evenodd" clip-rule="evenodd" d="M17.938 9V0H8.88a3.89 3.89 0 00-2.744 1.13A3.845 3.845 0 005 3.857v28.286c0 1.023.409 2.004 1.137 2.727A3.894 3.894 0 008.88 36h18.113a3.89 3.89 0 002.744-1.13 3.845 3.845 0 001.137-2.727V12.857h-9.056a3.893 3.893 0 01-2.745-1.13A3.845 3.845 0 0117.937 9zm2.587 0V.643l9.703 9.643h-8.41a1.3 1.3 0 01-.914-.377A1.282 1.282 0 0120.525 9zM10 18a1 1 0 100 2h16a1 1 0 100-2H10zm-1 5a1 1 0 011-1h16a1 1 0 110 2H10a1 1 0 01-1-1zm14 6a1 1 0 100 2h3a1 1 0 100-2h-3z"/></svg><svg viewBox="0 0 41 36" id="tg" xmlns="http://www.w3.org/2000/svg"><g clip-path="url(#ea)"><path d="M.719 17.28l9.426 3.538 3.675 11.9c.16.804 1.118.965 1.757.482l5.272-4.342c.48-.482 1.278-.482 1.917 0l9.426 6.915c.64.483 1.598.161 1.758-.643l7.03-33.77c.16-.805-.64-1.609-1.438-1.287L.719 15.189c-.959.322-.959 1.77 0 2.09zm12.621 1.769L31.873 7.63c.32-.16.639.321.32.482L17.014 22.426c-.48.482-.959 1.126-.959 1.93l-.479 3.86c0 .482-.799.642-.959 0L12.7 21.139c-.48-.804-.16-1.769.64-2.09z"/></g><defs><clipPath id="ea"><path d="M0 0h41v36H0z"/></clipPath></defs></svg><svg viewBox="0 0 36 36" id="wa" xmlns="http://www.w3.org/2000/svg"><g clip-path="url(#fa)"><path d="M30.732 5.25C27.345 1.875 22.829 0 18.062 0 8.154 0 .126 8 .126 17.875c0 3.125.878 6.25 2.384 8.875L0 36l9.533-2.5c2.634 1.375 5.52 2.125 8.53 2.125 9.91 0 17.937-8 17.937-17.875-.125-4.625-1.882-9.125-5.268-12.5zm-4.014 19c-.377 1-2.133 2-3.01 2.125a7.034 7.034 0 01-2.76-.125c-.627-.25-1.506-.5-2.509-1-4.516-1.875-7.4-6.375-7.652-6.75-.25-.25-1.881-2.375-1.881-4.625s1.129-3.25 1.505-3.75c.377-.5.878-.5 1.255-.5h.877c.251 0 .628-.125 1.004.75s1.254 3.125 1.38 3.25c.125.25.125.5 0 .75-.126.25-.251.5-.502.75-.25.25-.502.625-.627.75-.251.25-.502.5-.251.875.25.5 1.129 1.875 2.509 3.125 1.756 1.5 3.136 2 3.637 2.25.502.25.753.125 1.004-.125.25-.25 1.129-1.25 1.38-1.75.25-.5.627-.375 1.003-.25.376.125 2.634 1.25 3.01 1.5.502.25.753.375.879.5.125.375.125 1.25-.251 2.25z"/></g><defs><clipPath id="fa"><path d="M0 0h36v36H0z"/></clipPath></defs></svg></svg>