<svg width="40" height="40" viewBox="0 0 40 40" fill="none" xmlns="http://www.w3.org/2000/svg">
<path d="M36.1875 27.3594C35.9111 29.4694 34.8779 31.4072 33.2799 32.8126C31.682 34.218 29.628 34.9953 27.5 35C15.0938 35 5 24.9063 5 12.5C5.00469 10.372 5.78199 8.31805 7.18738 6.7201C8.59277 5.12216 10.5306 4.08893 12.6406 3.81251C13.1785 3.75287 13.7214 3.86612 14.1906 4.13583C14.6598 4.40554 15.0308 4.81769 15.25 5.31251L18.3906 12.6406C18.5535 13.021 18.6189 13.4361 18.5807 13.8481C18.5425 14.2601 18.4019 14.6561 18.1719 15L15.5781 18.9688C16.7526 21.3523 18.6879 23.2766 21.0781 24.4375L25 21.8281C25.3436 21.5965 25.7405 21.4563 26.1534 21.4208C26.5662 21.3853 26.9813 21.4555 27.3594 21.625L34.6875 24.75C35.1823 24.9692 35.5945 25.3402 35.8642 25.8094C36.1339 26.2786 36.2471 26.8215 36.1875 27.3594ZM24.5938 7.45314C26.4964 7.97296 28.2307 8.9799 29.6254 10.3746C31.0201 11.7693 32.0271 13.5036 32.5469 15.4063C32.6158 15.6734 32.7713 15.9102 32.9889 16.0798C33.2065 16.2494 33.4741 16.3422 33.75 16.3438C33.861 16.3436 33.9715 16.3278 34.0781 16.2969C34.237 16.2553 34.386 16.1824 34.5164 16.0825C34.6468 15.9827 34.7559 15.8577 34.8374 15.7151C34.9189 15.5725 34.9711 15.4151 34.991 15.2521C35.0108 15.089 34.998 14.9236 34.9531 14.7656C34.3282 12.4355 33.1011 10.3107 31.3952 8.60481C29.6893 6.89889 27.5646 5.67185 25.2344 5.04689C25.0713 4.98749 24.8977 4.96269 24.7245 4.97407C24.5514 4.98545 24.3825 5.03276 24.2286 5.11299C24.0747 5.19322 23.9392 5.30461 23.8308 5.44007C23.7223 5.57553 23.6432 5.73209 23.5986 5.89979C23.5539 6.06748 23.5447 6.24263 23.5714 6.41409C23.5982 6.58556 23.6604 6.74957 23.754 6.89569C23.8476 7.04181 23.9706 7.16684 24.1152 7.26281C24.2598 7.35878 24.4227 7.4236 24.5938 7.45314ZM23.2969 12.2813C24.3545 12.5708 25.3185 13.1308 26.0938 13.9062C26.8692 14.6815 27.4292 15.6455 27.7188 16.7031C27.7853 16.9716 27.94 17.2099 28.1582 17.3799C28.3764 17.5499 28.6453 17.6418 28.9219 17.6406C29.0279 17.6417 29.1334 17.6258 29.2344 17.5938C29.3947 17.5539 29.5454 17.4823 29.6775 17.3831C29.8096 17.2839 29.9205 17.1593 30.0035 17.0165C30.0866 16.8737 30.1401 16.7157 30.161 16.5518C30.1818 16.3879 30.1696 16.2216 30.125 16.0625C29.7304 14.5774 28.9503 13.2229 27.8637 12.1363C26.7771 11.0497 25.4226 10.2696 23.9375 9.87501C23.7744 9.81561 23.6008 9.79081 23.4277 9.80219C23.2545 9.81357 23.0856 9.86088 22.9317 9.94111C22.7778 10.0213 22.6424 10.1327 22.5339 10.2682C22.4254 10.4037 22.3463 10.5602 22.3017 10.7279C22.2571 10.8956 22.2478 11.0708 22.2746 11.2422C22.3013 11.4137 22.3635 11.5777 22.4571 11.7238C22.5507 11.8699 22.6737 11.995 22.8183 12.0909C22.9629 12.1869 23.1259 12.2517 23.2969 12.2813Z" fill="url(#paint0_linear_9_677)"/>
<defs>
<linearGradient id="paint0_linear_9_677" x1="20.6015" y1="3.797" x2="20.6015" y2="35" gradientUnits="userSpaceOnUse">
<stop stop-color="#FF8C00"/>
<stop offset="1" stop-color="#E61E3C"/>
</linearGradient>
</defs>
</svg>
